<svg width="38" height="44" viewBox="0 0 38 44" fill="none" xmlns="http://www.w3.org/2000/svg">
<path d="M36.9834 10.1825L19.7615 0.23952C19.2085 -0.0798399 18.5261 -0.0798399 17.9731 0.23952L0.75191 10.1825C0.287019 10.4509 0 10.9474 0 11.485V31.5351C0 32.072 0.287019 32.5692 0.75191 32.8376L17.9739 42.7806C18.5269 43.1 19.2093 43.1 19.7623 42.7806L36.9843 32.8376C37.4491 32.5692 37.7362 32.0728 37.7362 31.5351V11.485C37.7362 10.9482 37.4491 10.4509 36.9843 10.1825H36.9834ZM35.9017 12.2887L19.2764 41.0844C19.164 41.2784 18.8673 41.1992 18.8673 40.9744V22.1193C18.8673 21.7425 18.666 21.3941 18.3393 21.2049L2.01075 11.7777C1.81671 11.6653 1.89594 11.3686 2.12071 11.3686H35.3713C35.8434 11.3686 36.1386 11.8804 35.9025 12.2895H35.9017V12.2887Z" fill="#F7F7F4"/>
</svg>
